<svg xmlns="http://www.w3.org/2000/svg" width="74" height="74" viewBox="0 0 74 74">
  <g id="Group_2" data-name="Group 2" transform="translate(-177 -107)">
    <path id="Rectangle_3" data-name="Rectangle 3" d="M18.5,0h.974A17.526,17.526,0,0,1,37,17.526V37a0,0,0,0,1,0,0H18.5A18.5,18.5,0,0,1,0,18.5v0A18.5,18.5,0,0,1,18.5,0Z" transform="translate(214 144)" fill="#4b81ee"/>
    <path id="Rectangle_5" data-name="Rectangle 5" d="M18.5,0h.974A17.526,17.526,0,0,1,37,17.526V37a0,0,0,0,1,0,0H18.5A18.5,18.5,0,0,1,0,18.5v0A18.5,18.5,0,0,1,18.5,0Z" transform="translate(214 107)" fill="#4b81ee"/>
    <path id="Rectangle_4" data-name="Rectangle 4" d="M18.5,0h.974A17.526,17.526,0,0,1,37,17.526V37a0,0,0,0,1,0,0H18.5A18.5,18.5,0,0,1,0,18.5v0A18.5,18.5,0,0,1,18.5,0Z" transform="translate(214 144) rotate(180)" fill="#4b81ee"/>
    <path id="Rectangle_6" data-name="Rectangle 6" d="M18.5,0h.974A17.526,17.526,0,0,1,37,17.526V37a0,0,0,0,1,0,0H18.5A18.5,18.5,0,0,1,0,18.5v0A18.5,18.5,0,0,1,18.5,0Z" transform="translate(214 181) rotate(180)" fill="#4b81ee"/>
  </g>
</svg>
